# xmcd
# 
# Track frame offsets:
#     187
#     1305
#     20910
#     43612
#     66020
#     86782
#     107292
#     130512
#     149762
#     169952
#     187387
#     203460
#     232325
#     249427
#     268495
# 
# Disc length: 3816
# 
# Revision: 3
# Processed by: cddbd v1.5.2PL0 Copyright (c) Steve Scherf et al.
# Submitted via: fre:ac v1.0.31
# 
DISCID=df0ee60f
DTITLE=Candy Dulfer - For the Love of You
DYEAR=1997
DGENRE=Jazz
TTITLE0=Saxy Intro
TTITLE1=Saxy Mood
TTITLE2=For the Love of You
TTITLE3=Once You Get Started
TTITLE4=Smooth
TTITLE5=Gititon
TTITLE6=Girls Should Stick Together (for Nada)
TTITLE7=Wish You Were Here
TTITLE8=Allright
TTITLE9=Give Me Some More
TTITLE10=Sunday Cool
TTITLE11=Bird
TTITLE12=D'S Tune
TTITLE13=For the Love of You (Vanski's superdooper dance mix)
TTITLE14=For the Love of You (Sweet as honey club mix)
EXTD=YEAR: 1997
EXTT0=
EXTT1=
EXTT2=
EXTT3=
EXTT4=
EXTT5=
EXTT6=
EXTT7=
EXTT8=
EXTT9=
EXTT10=
EXTT11=
EXTT12=
EXTT13=
EXTT14=
PLAYORDER=
